<svg width="186" height="117" viewBox="0 0 186 117" fill="none" xmlns="http://www.w3.org/2000/svg">
<rect width="17.4842" height="114.209" rx="8.74208" fill="white"/>
<rect width="17.4842" height="114.209" rx="8.74208" fill="white"/>
<rect x="74.3076" width="17.4842" height="114.209" rx="8.74208" fill="white"/>
<rect x="74.3076" width="17.4842" height="114.209" rx="8.74208" fill="white"/>
<rect x="98.7855" width="17.4842" height="114.209" rx="8.74208" fill="white"/>
<rect x="98.7855" width="17.4842" height="114.209" rx="8.74208" fill="white"/>
<rect x="98.7855" y="114.209" width="14.8323" height="83.9239" rx="7.41613" transform="rotate(-90 98.7855 114.209)" fill="white"/>
<rect x="98.7855" y="114.209" width="14.8323" height="83.9239" rx="7.41613" transform="rotate(-90 98.7855 114.209)" fill="white"/>
<rect width="16.2125" height="56.8273" rx="8.10626" transform="matrix(0.762569 -0.646907 0.762569 0.646907 130.302 80.238)" fill="white"/>
<rect width="16.2125" height="56.8273" rx="8.10626" transform="matrix(0.762569 -0.646907 0.762569 0.646907 130.302 80.238)" fill="white"/>
<rect width="15.7016" height="63.884" rx="7.8508" transform="matrix(0.619722 -0.784822 0.869425 0.494065 0 52.3701)" fill="white"/>
<rect width="15.7016" height="63.884" rx="7.8508" transform="matrix(0.619722 -0.784822 0.869425 0.494065 0 52.3701)" fill="white"/>
<rect width="15.7016" height="63.884" rx="7.8508" transform="matrix(0.619722 -0.784822 0.869425 0.494065 27.1004 42.7291)" fill="white"/>
<rect width="15.7016" height="63.884" rx="7.8508" transform="matrix(0.619722 -0.784822 0.869425 0.494065 27.1004 42.7291)" fill="white"/>
</svg>
